<svg width="99" height="39" viewBox="0 0 99 39" fill="none" xmlns="http://www.w3.org/2000/svg">
<circle cx="19.5" cy="19.4998" r="19.5" fill="#E3B873"/>
<path d="M11.7002 12.2566H27.3002C28.3727 12.2566 29.2502 13.1341 29.2502 14.2066V25.9066C29.2502 26.9791 28.3727 27.8566 27.3002 27.8566H11.7002C10.6277 27.8566 9.75024 26.9791 9.75024 25.9066V14.2066C9.75024 13.1341 10.6277 12.2566 11.7002 12.2566Z" stroke="white" stroke-width="1.5" stroke-linecap="round" stroke-linejoin="round"/>
<path d="M29.2502 14.2073L19.5002 21.0323L9.75024 14.2073" stroke="white" stroke-width="1.5" stroke-linecap="round" stroke-linejoin="round"/>
<circle cx="79.3929" cy="19.4998" r="19.5" fill="#E3B873"/>
<path d="M83.5714 11.699H75.2142C72.9065 11.699 71.0356 13.5698 71.0356 15.8775V24.2347C71.0356 26.5424 72.9065 28.4133 75.2142 28.4133H83.5714C85.8791 28.4133 87.7499 26.5424 87.7499 24.2347V15.8775C87.7499 13.5698 85.8791 11.699 83.5714 11.699Z" stroke="white" stroke-width="1.5"/>
<path d="M82.7356 19.5298C82.8388 20.2253 82.72 20.9356 82.3961 21.5597C82.0723 22.1838 81.5599 22.6899 80.9318 23.0061C80.3038 23.3222 79.592 23.4322 78.8978 23.3205C78.2036 23.2088 77.5623 22.881 77.0652 22.3839C76.568 21.8867 76.2402 21.2454 76.1285 20.5512C76.0168 19.857 76.1268 19.1452 76.443 18.5172C76.7591 17.8891 77.2652 17.3767 77.8893 17.0529C78.5134 16.7291 79.2237 16.6103 79.9193 16.7134C80.6287 16.8186 81.2855 17.1492 81.7927 17.6563C82.2998 18.1635 82.6304 18.8203 82.7356 19.5298Z" stroke="white" stroke-width="1.5" stroke-linecap="round" stroke-linejoin="round"/>
</svg>
